<svg xmlns="http://www.w3.org/2000/svg" viewBox="0 0 458.39 450.07"><defs><style>.cls-1{opacity:0.41;}.cls-2,.cls-5,.cls-6,.cls-8{fill:#e1e2fe;}.cls-3{opacity:0.31;}.cls-23,.cls-4{fill:#ecf1f7;}.cls-25,.cls-4,.cls-5{opacity:0.47;}.cls-6{opacity:0.32;}.cls-7{opacity:0.83;}.cls-14,.cls-8{opacity:0.81;}.cls-16,.cls-9{fill:#3e479b;}.cls-10,.cls-9{opacity:0.58;}.cls-10{fill:#ef929c;}.cls-11,.cls-15{opacity:0.66;}.cls-12,.cls-15,.cls-18,.cls-25{fill:#fff;}.cls-13{opacity:0.84;}.cls-17{fill:#6d6cd4;}.cls-18{opacity:0.12;}.cls-19{fill:#f28393;}.cls-20{fill:#c5d9ff;}.cls-21{fill:#599af2;}.cls-22{opacity:0.35;}.cls-24{fill:#4c65ba;opacity:0.36;}.cls-26{fill:#f7a9b4;opacity:0.39;}</style></defs><g id="BACKGROUND"><g class="cls-1"><path class="cls-2" d="M28.81,302.94a137.44,137.44,0,0,1-.54-22.86c2.17-35.78,18.37-70.27,43.5-95.34,9-8.94,19.26-17.07,24.81-28.54,9.35-19.32,7.49-40.85,19.33-60.06a108.93,108.93,0,0,1,50.4-43.24c61.52-25.47,151,6,147,83.42,0,.28,0,.68,0,1.19a27.75,27.75,0,0,0,28.4,28.41c57.86-1.66,109.87,41.19,123.4,98.24,8.7,36.7-.48,77.91-25.72,105.53-18.84,20.62-44.89,32.78-71.13,41.58-52.6,17.64-108.57,23.72-163.85,21-51.75-2.57-106.81-14.8-142.13-53.48C43.38,358.13,31.82,331,28.81,302.94Z" transform="translate(-22.59 -17.39)"/></g><g class="cls-3"><ellipse class="cls-2" cx="306.21" cy="47.64" rx="13.29" ry="13.02" transform="matrix(0.02, -1, 1, 0.02, 229.52, 335.38)"/></g><g class="cls-3"><path class="cls-2" d="M85.62,48A6.72,6.72,0,1,0,92,40.79,6.76,6.76,0,0,0,85.62,48Z" transform="translate(-22.59 -17.39)"/></g><g class="cls-3"><path class="cls-2" d="M472.09,203a4.45,4.45,0,1,0,4.22-4.77A4.49,4.49,0,0,0,472.09,203Z" transform="translate(-22.59 -17.39)"/></g><g class="cls-3"><ellipse class="cls-2" cx="430.87" cy="431.43" rx="20.93" ry="20.5" transform="translate(-32.08 835.78) rotate(-88.8)"/></g><path class="cls-4" d="M25.72,98a23.94,23.94,0,0,1,8.43-32.33c11.06-6.56,32.93-7.28,39.34,4S62.91,91.88,56.32,103.08C47.13,118.7,32.14,109.31,25.72,98Z" transform="translate(-22.59 -17.39)"/><path class="cls-5" d="M93.26,452.05A17.51,17.51,0,0,1,68.48,448c-5.72-8.11-7.9-25.07,0-30.93s17.36,6.54,26.22,10.82C107.1,433.81,101.21,446.2,93.26,452.05Z" transform="translate(-22.59 -17.39)"/><path class="cls-5" d="M408.43,24.33a22.06,22.06,0,0,1,31.65-.48c8.86,8.79,15.22,29.36,6.6,38.42s-23-4.23-34.89-7.55C395.17,50.09,399.81,33.39,408.43,24.33Z" transform="translate(-22.59 -17.39)"/><path class="cls-6" d="M45,148.18c-5.82,16.76-7.41,35.07-3.64,52.39,5.06,23.29,22.51,43.77,19.53,68.61-1.78,14.91-1.46,28.57-1.82,43.22-.74,30.07,20.27,55,44.92,67.43,20,10.12,42.79,12.79,64.76,10.85,19.78-1.74,39.26-6.93,58.06-13.37,18.12-6.2,35.7-13.9,55.24-13.33,16.24.48,31.31,6.52,46.73,10.71,36.81,10,80.35,8.59,111.64-13.1,34.3-23.79,48.15-68.91,36.16-108.35-6.42-21.15-15-39.48-11.9-62,1.53-11.09,3.8-22.37,1.7-33.36-1.93-10.12-7.48-19.22-14.06-27.15-17.73-21.37-43-35-69.23-43-29.77-9.1-62.83-14-93.79-9.35-60.15,9.15-73.24.26-136.11-8.67-42.11-6-81.65,27.51-100.84,62A103.66,103.66,0,0,0,45,148.18Z" transform="translate(-22.59 -17.39)"/><g class="cls-7"><path class="cls-8" d="M74.13,196.57c8.66-11.42,22.05-19.19,28.61-32.32,7.86-15.73,6.2-34.28,13.22-50.35,10.36-23.74,29.14-43.9,52.65-55,11.33-5.34,23.76-8.58,35.89-7.65,18.7,1.43,34.84,12.57,47.45,25.86C270.72,96.93,284,125,306.53,140.88c12.43,8.75,27-.53,40.21-3.48a91.15,91.15,0,0,1,44.61,1.51c26.21,7.46,48.78,26.23,60.07,51,12.05,26.43,10.33,63-12.29,85.69-10.46,10.52-24.65,17.54-32.42,30.14-9.74,15.8-10.89,37.16-13.61,54.73a116.17,116.17,0,0,1-23.76,54l-.43.53a76.55,76.55,0,0,1-89.77,22.5l-66.3-28.72C145.57,379.62,94.51,332.66,70,264.6c-5.31-14.72-7.23-46.12-.47-60.5A42.05,42.05,0,0,1,74.13,196.57Z" transform="translate(-22.59 -17.39)"/></g><circle class="cls-9" cx="361.47" cy="415.48" r="4.5"/><circle class="cls-9" cx="247.59" cy="20.22" r="2.25"/><circle class="cls-9" cx="108.72" cy="426.28" r="4.5"/><circle class="cls-10" cx="379.8" cy="446.57" r="3.5"/><circle class="cls-9" cx="35.46" cy="23.39" r="1.5"/><circle class="cls-10" cx="464.22" cy="80.72" r="5.4" transform="translate(159.21 440.49) rotate(-63.04)"/><path class="cls-10" d="M75.15,26.8a2.12,2.12,0,1,1-1.63-2.51A2.12,2.12,0,0,1,75.15,26.8Z" transform="translate(-22.59 -17.39)"/><path class="cls-10" d="M289.77,20a2.12,2.12,0,1,1-1.63-2.52A2.12,2.12,0,0,1,289.77,20Z" transform="translate(-22.59 -17.39)"/><path class="cls-9" d="M438.64,86.5a1.8,1.8,0,1,1-3.52-.75,1.8,1.8,0,1,1,3.52.75Z" transform="translate(-22.59 -17.39)"/><path class="cls-9" d="M41.1,396.91a1.8,1.8,0,1,1-1.38-2.14A1.8,1.8,0,0,1,41.1,396.91Z" transform="translate(-22.59 -17.39)"/></g><g id="OBJECTS"><g class="cls-11"><path class="cls-12" d="M371.12,208.38h-7.8a5.94,5.94,0,0,1-5.94-5.94v-8.78a4,4,0,0,0-2.6-3.7c-.92-.34-1.84-.72-2.73-1.13a4,4,0,0,0-4.48.77l-6.21,6.21a6,6,0,0,1-8.41,0l-5.52-5.52a6,6,0,0,1,0-8.41l6.21-6.21a4,4,0,0,0,.77-4.49c-.41-.89-.79-1.81-1.13-2.73a4,4,0,0,0-3.7-2.59H320.8a6,6,0,0,1-5.95-5.94v-7.81a6,6,0,0,1,5.95-5.94h8.78a4,4,0,0,0,3.7-2.59c.34-.92.72-1.83,1.13-2.73a4,4,0,0,0-.77-4.49l-6.21-6.21a6,6,0,0,1,0-8.4l5.52-5.52a6,6,0,0,1,8.41,0l6.21,6.21a4,4,0,0,0,4.48.77c.9-.42,1.82-.8,2.74-1.13a4,4,0,0,0,2.59-3.71v-8.78a6,6,0,0,1,5.94-5.94h7.8a6,6,0,0,1,5.95,5.94v8.78a4,4,0,0,0,2.59,3.71c.91.33,1.83.71,2.73,1.13a4,4,0,0,0,4.49-.77l6.2-6.21a6,6,0,0,1,8.41,0l5.52,5.52a5.94,5.94,0,0,1,0,8.4l-6.21,6.21a4,4,0,0,0-.77,4.49c.41.9.8,1.81,1.13,2.73a4,4,0,0,0,3.7,2.59h8.78a6,6,0,0,1,5.95,5.94v7.81a6,6,0,0,1-5.95,5.94h-8.78a4,4,0,0,0-3.7,2.59c-.33.92-.71,1.84-1.13,2.73a4,4,0,0,0,.77,4.49l6.21,6.21a6,6,0,0,1,0,8.41l-5.52,5.52a6,6,0,0,1-8.41,0l-6.2-6.21a4,4,0,0,0-4.49-.77c-.89.41-1.81.79-2.73,1.13a4,4,0,0,0-2.59,3.7v8.78A6,6,0,0,1,371.12,208.38Zm-20.76-21.93a6.16,6.16,0,0,1,2.54.56c.84.39,1.7.75,2.57,1.07a6,6,0,0,1,3.91,5.58v8.78a3.93,3.93,0,0,0,3.94,3.94h7.8a3.94,3.94,0,0,0,3.95-3.94v-8.78a6,6,0,0,1,3.9-5.58c.87-.32,1.74-.68,2.57-1.07a6,6,0,0,1,6.75,1.17l6.21,6.21a4,4,0,0,0,5.58,0l5.52-5.52a4,4,0,0,0,0-5.57l-6.21-6.21a6,6,0,0,1-1.17-6.75c.39-.84.75-1.71,1.06-2.58a6,6,0,0,1,5.58-3.9h8.78a4,4,0,0,0,3.95-3.94v-7.81a4,4,0,0,0-3.95-3.94h-8.78a6,6,0,0,1-5.58-3.9c-.31-.87-.67-1.73-1.06-2.58a6,6,0,0,1,1.17-6.74l6.21-6.21a4,4,0,0,0,0-5.58l-5.52-5.52a4,4,0,0,0-5.58,0l-6.21,6.21a6,6,0,0,1-6.75,1.17c-.84-.39-1.71-.75-2.57-1.07a6,6,0,0,1-3.9-5.58v-8.78a4,4,0,0,0-3.95-3.94h-7.8a3.94,3.94,0,0,0-3.94,3.94v8.78a6,6,0,0,1-3.91,5.58c-.86.32-1.73.68-2.57,1.07a6,6,0,0,1-6.75-1.17l-6.21-6.21a3.94,3.94,0,0,0-5.57,0l-5.52,5.52a4,4,0,0,0,0,5.58l6.21,6.21a6,6,0,0,1,1.16,6.74c-.39.85-.74,1.71-1.06,2.58a6,6,0,0,1-5.58,3.9H320.8a4,4,0,0,0-3.95,3.94v7.81a4,4,0,0,0,3.95,3.94h8.78a6,6,0,0,1,5.58,3.9,27.5,27.5,0,0,0,1.07,2.58,6,6,0,0,1-1.17,6.75l-6.21,6.21a3.94,3.94,0,0,0,0,5.57l5.52,5.52a3.94,3.94,0,0,0,5.57,0l6.21-6.21A6,6,0,0,1,350.36,186.45Zm16.86-3A27.45,27.45,0,1,1,394.67,156,27.48,27.48,0,0,1,367.22,183.47Zm0-52.9A25.45,25.45,0,1,0,392.67,156,25.48,25.48,0,0,0,367.22,130.57Z" transform="translate(-22.59 -17.39)"/><g class="cls-13"><path class="cls-12" d="M356.59,351.07h-9.74a5.5,5.5,0,0,1-5.15-3.6c-.36-1-.77-2-1.21-2.94a5.51,5.51,0,0,1,1.07-6.23l6.89-6.88a5.49,5.49,0,0,0,0-7.76l-6.12-6.12a5.49,5.49,0,0,0-7.76,0l-6.88,6.89a5.51,5.51,0,0,1-6.23,1.07c-1-.44-1.94-.85-2.94-1.22a5.46,5.46,0,0,1-3.6-5.14V309.4a5.48,5.48,0,0,0-5.49-5.48h-8.65a5.48,5.48,0,0,0-5.48,5.48v9.74a5.47,5.47,0,0,1-3.6,5.14c-1,.37-2,.78-2.95,1.22a5.51,5.51,0,0,1-6.23-1.07l-6.88-6.89a5.49,5.49,0,0,0-7.76,0l-6.12,6.12a5.49,5.49,0,0,0,0,7.76l6.89,6.88a5.51,5.51,0,0,1,1.07,6.23c-.44,1-.85,1.94-1.21,2.94a5.5,5.5,0,0,1-5.15,3.6h-9.74a5.48,5.48,0,0,0-5.48,5.49v8.65a5.48,5.48,0,0,0,5.48,5.48h9.74a5.5,5.5,0,0,1,5.15,3.6c.36,1,.77,2,1.21,2.95a5.51,5.51,0,0,1-1.07,6.23l-6.89,6.88a5.48,5.48,0,0,0,0,7.75l6.12,6.13a5.49,5.49,0,0,0,7.76,0l6.88-6.89a5.53,5.53,0,0,1,6.23-1.08c1,.45,1.94.86,2.95,1.22a5.5,5.5,0,0,1,3.6,5.15v9.74a5.48,5.48,0,0,0,5.48,5.48h8.65a5.48,5.48,0,0,0,5.49-5.48v-9.74a5.48,5.48,0,0,1,3.6-5.15c1-.36,2-.77,2.94-1.22a5.53,5.53,0,0,1,6.23,1.08l6.88,6.89a5.49,5.49,0,0,0,7.76,0l6.12-6.13a5.48,5.48,0,0,0,0-7.75l-6.89-6.88a5.51,5.51,0,0,1-1.07-6.23c.44-1,.85-1.95,1.21-2.95a5.5,5.5,0,0,1,5.15-3.6h9.74a5.48,5.48,0,0,0,5.48-5.48v-8.65A5.48,5.48,0,0,0,356.59,351.07Zm-51.48,39.15a29.34,29.34,0,1,1,29.33-29.34A29.34,29.34,0,0,1,305.11,390.22Z" transform="translate(-22.59 -17.39)"/></g><path class="cls-12" d="M204.29,409.4h-6.56a5.16,5.16,0,0,1-5.15-5.16v-7.37a3.15,3.15,0,0,0-2.07-3q-1.17-.44-2.31-1a3.2,3.2,0,0,0-3.59.62l-5.21,5.21a5.15,5.15,0,0,1-7.29,0l-4.64-4.63a5.15,5.15,0,0,1,0-7.29l5.22-5.22a3.18,3.18,0,0,0,.61-3.59c-.35-.75-.67-1.52-1-2.3a3.17,3.17,0,0,0-3-2.07H162a5.16,5.16,0,0,1-5.15-5.16V362a5.16,5.16,0,0,1,5.15-5.16h7.38a3.17,3.17,0,0,0,3-2.07c.29-.78.61-1.56,1-2.3a3.18,3.18,0,0,0-.61-3.59l-5.22-5.22a5.15,5.15,0,0,1,0-7.29l4.64-4.63a5.16,5.16,0,0,1,7.29,0l5.21,5.21a3.18,3.18,0,0,0,3.59.62q1.13-.53,2.31-1a3.15,3.15,0,0,0,2.07-3v-7.37a5.16,5.16,0,0,1,5.15-5.16h6.56a5.16,5.16,0,0,1,5.15,5.16v7.37a3.15,3.15,0,0,0,2.07,3q1.19.44,2.31,1a3.19,3.19,0,0,0,3.59-.62l5.21-5.21a5.16,5.16,0,0,1,7.29,0l4.64,4.63a5.15,5.15,0,0,1,0,7.29l-5.22,5.22a3.18,3.18,0,0,0-.61,3.59c.34.74.66,1.52.95,2.3a3.17,3.17,0,0,0,3,2.07H240a5.16,5.16,0,0,1,5.15,5.16v6.55a5.16,5.16,0,0,1-5.15,5.16h-7.38a3.17,3.17,0,0,0-3,2.07c-.28.78-.61,1.55-.95,2.3a3.18,3.18,0,0,0,.61,3.59l5.22,5.22a5.15,5.15,0,0,1,0,7.29l-4.64,4.63a5.15,5.15,0,0,1-7.29,0l-5.21-5.21a3.2,3.2,0,0,0-3.59-.62c-.76.35-1.54.67-2.31,1a3.15,3.15,0,0,0-2.07,3v7.37A5.16,5.16,0,0,1,204.29,409.4Zm-17.44-18.75a5.14,5.14,0,0,1,2.19.49c.71.32,1.43.62,2.16.89a5.18,5.18,0,0,1,3.38,4.84v7.37a3.16,3.16,0,0,0,3.15,3.16h6.56a3.16,3.16,0,0,0,3.15-3.16v-7.37a5.18,5.18,0,0,1,3.38-4.84c.72-.26,1.45-.56,2.16-.89a5.18,5.18,0,0,1,5.84,1l5.22,5.22a3.23,3.23,0,0,0,4.46,0l4.63-4.64a3.14,3.14,0,0,0,0-4.46l-5.21-5.21a5.2,5.2,0,0,1-1-5.85c.33-.7.63-1.42.89-2.15a5.19,5.19,0,0,1,4.84-3.38H240a3.16,3.16,0,0,0,3.15-3.16V362a3.16,3.16,0,0,0-3.15-3.16h-7.38a5.17,5.17,0,0,1-4.84-3.38c-.26-.73-.56-1.45-.89-2.15a5.22,5.22,0,0,1,1-5.85l5.21-5.21a3.14,3.14,0,0,0,0-4.46l-4.63-4.64a3.16,3.16,0,0,0-4.46,0l-5.22,5.22a5.18,5.18,0,0,1-5.84,1c-.7-.32-1.42-.62-2.16-.89a5.17,5.17,0,0,1-3.38-4.84v-7.37a3.16,3.16,0,0,0-3.15-3.16h-6.56a3.16,3.16,0,0,0-3.15,3.16v7.37a5.17,5.17,0,0,1-3.38,4.84c-.74.27-1.46.57-2.16.89a5.18,5.18,0,0,1-5.84-1L178,333.12a3.16,3.16,0,0,0-4.46,0l-4.63,4.64a3.14,3.14,0,0,0,0,4.46l5.21,5.21a5.22,5.22,0,0,1,1,5.85c-.33.7-.63,1.42-.89,2.15a5.17,5.17,0,0,1-4.84,3.38H162a3.16,3.16,0,0,0-3.15,3.16v6.55a3.16,3.16,0,0,0,3.15,3.16h7.38a5.19,5.19,0,0,1,4.84,3.38c.26.73.56,1.45.89,2.15a5.22,5.22,0,0,1-1,5.85l-5.21,5.21a3.14,3.14,0,0,0,0,4.46l4.63,4.64a3.23,3.23,0,0,0,4.46,0l5.22-5.22A5.15,5.15,0,0,1,186.85,390.65ZM201,388.46a23.22,23.22,0,1,1,23.22-23.21A23.24,23.24,0,0,1,201,388.46ZM201,344a21.22,21.22,0,1,0,21.22,21.22A21.24,21.24,0,0,0,201,344Z" transform="translate(-22.59 -17.39)"/></g><g class="cls-14"><path class="cls-12" d="M416.43,300.92h-13a1,1,0,0,1,0-2h13a1,1,0,0,1,0,2Z" transform="translate(-22.59 -17.39)"/><path class="cls-12" d="M416.43,322.4h-13a1,1,0,0,1,0-2h13a1,1,0,0,1,0,2Z" transform="translate(-22.59 -17.39)"/><path class="cls-12" d="M425.65,344.1H346.38a2.72,2.72,0,0,1-2.71-2.71V275.12a2.71,2.71,0,0,1,2.71-2.71h79.27a2.71,2.71,0,0,1,2.71,2.71v66.27A2.72,2.72,0,0,1,425.65,344.1Zm-79.27-69.69a.71.71,0,0,0-.71.71v66.27a.71.71,0,0,0,.71.71h79.27a.71.71,0,0,0,.71-.71V275.12a.71.71,0,0,0-.71-.71Z" transform="translate(-22.59 -17.39)"/><path class="cls-15" d="M425.65,344.1H346.38a2.72,2.72,0,0,1-2.71-2.71V275.12a2.71,2.71,0,0,1,2.71-2.71h79.27a2.71,2.71,0,0,1,2.71,2.71v66.27A2.72,2.72,0,0,1,425.65,344.1Zm-79.27-69.69a.71.71,0,0,0-.71.71v66.27a.71.71,0,0,0,.71.71h79.27a.71.71,0,0,0,.71-.71V275.12a.71.71,0,0,0-.71-.71Z" transform="translate(-22.59 -17.39)"/><path class="cls-12" d="M416.43,290.5H354.31a1,1,0,1,1,0-2h62.12a1,1,0,1,1,0,2Z" transform="translate(-22.59 -17.39)"/><path class="cls-12" d="M416.43,311.35H354.31a1,1,0,0,1,0-2h62.12a1,1,0,0,1,0,2Z" transform="translate(-22.59 -17.39)"/><path class="cls-12" d="M387.8,300.92H354.31a1,1,0,0,1,0-2H387.8a1,1,0,0,1,0,2Z" transform="translate(-22.59 -17.39)"/><path class="cls-12" d="M387.8,322.4H354.31a1,1,0,0,1,0-2H387.8a1,1,0,1,1,0,2Z" transform="translate(-22.59 -17.39)"/><path class="cls-12" d="M376.9,332.36H354.31a1,1,0,0,1,0-2H376.9a1,1,0,0,1,0,2Z" transform="translate(-22.59 -17.39)"/></g><g class="cls-14"><path class="cls-12" d="M162.8,191.56H148a1,1,0,0,1,0-2H162.8a1,1,0,0,1,0,2Z" transform="translate(-22.59 -17.39)"/><path class="cls-12" d="M162.8,215.93H148a1,1,0,0,1,0-2H162.8a1,1,0,0,1,0,2Z" transform="translate(-22.59 -17.39)"/><path class="cls-12" d="M173.48,240.55H83.1a2.72,2.72,0,0,1-2.72-2.71V162.19a2.71,2.71,0,0,1,2.72-2.71h90.38a2.71,2.71,0,0,1,2.72,2.71v75.65A2.72,2.72,0,0,1,173.48,240.55ZM83.1,161.48a.71.71,0,0,0-.72.71v75.65a.71.71,0,0,0,.72.71h90.38a.71.71,0,0,0,.72-.71V162.19a.71.71,0,0,0-.72-.71Z" transform="translate(-22.59 -17.39)"/><path class="cls-15" d="M173.48,240.55H83.1a2.72,2.72,0,0,1-2.72-2.71V162.19a2.71,2.71,0,0,1,2.72-2.71h90.38a2.71,2.71,0,0,1,2.72,2.71v75.65A2.72,2.72,0,0,1,173.48,240.55ZM83.1,161.48a.71.71,0,0,0-.72.71v75.65a.71.71,0,0,0,.72.71h90.38a.71.71,0,0,0,.72-.71V162.19a.71.71,0,0,0-.72-.71Z" transform="translate(-22.59 -17.39)"/><path class="cls-12" d="M162.8,179.73H92.32a1,1,0,1,1,0-2H162.8a1,1,0,0,1,0,2Z" transform="translate(-22.59 -17.39)"/><path class="cls-12" d="M162.8,203.39H92.32a1,1,0,0,1,0-2H162.8a1,1,0,0,1,0,2Z" transform="translate(-22.59 -17.39)"/><path class="cls-12" d="M130.32,191.56h-38a1,1,0,0,1,0-2h38a1,1,0,0,1,0,2Z" transform="translate(-22.59 -17.39)"/><path class="cls-12" d="M130.32,215.93h-38a1,1,0,0,1,0-2h38a1,1,0,0,1,0,2Z" transform="translate(-22.59 -17.39)"/><path class="cls-12" d="M117.94,227.22H92.32a1,1,0,1,1,0-2h25.62a1,1,0,0,1,0,2Z" transform="translate(-22.59 -17.39)"/></g><path class="cls-16" d="M423.19,158H378.25a4.82,4.82,0,0,0-4.46,3.66l-1.49,4.94a4.81,4.81,0,0,1-4.46,3.65H303.49c-2.6,0-4.72,2.44-4.72,5.45h0v72.86c0,3,2.12,5.44,4.72,5.44h119.7a5.25,5.25,0,0,0,5-5.44V163.47A5.25,5.25,0,0,0,423.19,158Z" transform="translate(-22.59 -17.39)"/><path class="cls-17" d="M377.27,171l1.59-4.94a5.09,5.09,0,0,1,4.76-3.65h39.57a5.24,5.24,0,0,1,5,5.44V253a5.25,5.25,0,0,1-5,5.45H303.81a5.26,5.26,0,0,1-5-5.45V180.15a5.26,5.26,0,0,1,5-5.45h68.7A5.08,5.08,0,0,0,377.27,171Z" transform="translate(-22.59 -17.39)"/><path class="cls-18" d="M380.2,176.06l1.5-4.65a4.78,4.78,0,0,1,4.49-3.45h37.29a5,5,0,0,1,4.75,5.13v80.22a5,5,0,0,1-4.75,5.14H311a5,5,0,0,1-4.75-5.14V184.65a5,5,0,0,1,4.75-5.14h64.75A4.79,4.79,0,0,0,380.2,176.06Z" transform="translate(-22.59 -17.39)"/><path class="cls-12" d="M414.59,252.31H385.07a1,1,0,0,1,0-2h29.52a3.46,3.46,0,0,0,3.46-3.46V223.43a1,1,0,0,1,2,0v23.42A5.47,5.47,0,0,1,414.59,252.31Z" transform="translate(-22.59 -17.39)"/><path class="cls-19" d="M70.63,240.87h45.24c2,0,3.82,1.66,4.48,4.12l1.5,5.56c.67,2.46,2.47,4.11,4.49,4.11H191.1c2.62,0,4.75,2.75,4.75,6.13h0v81.95c0,3.39-2.13,6.13-4.75,6.13H70.63c-2.8,0-5.08-2.74-5.08-6.13V247C65.55,243.62,67.83,240.87,70.63,240.87Z" transform="translate(-22.59 -17.39)"/><path class="cls-18" d="M116.84,255.53l-1.6-5.56a5.24,5.24,0,0,0-4.79-4.12H70.63c-2.8,0-5.08,2.75-5.08,6.13v95.74c0,3.38,2.28,6.13,5.08,6.13H190.78c2.8,0,5.07-2.75,5.07-6.13v-82c0-3.39-2.27-6.13-5.07-6.13H121.64A5.25,5.25,0,0,1,116.84,255.53Z" transform="translate(-22.59 -17.39)"/><path class="cls-18" d="M113.9,261.17l-1.51-5.23a4.93,4.93,0,0,0-4.52-3.88H70.34c-2.64,0-4.79,2.58-4.79,5.77v90.24c0,3.19,2.15,5.78,4.79,5.78H183.59c2.64,0,4.78-2.59,4.78-5.78V270.83c0-3.19-2.14-5.78-4.78-5.78H118.41A4.93,4.93,0,0,1,113.9,261.17Z" transform="translate(-22.59 -17.39)"/><path class="cls-12" d="M74.8,276.05a1,1,0,0,1-.9-1V261.17a3.25,3.25,0,0,1,3-3.41H95.6a1,1,0,0,1,0,2H77a1.35,1.35,0,0,0-1.26,1.41v13.88A1,1,0,0,1,74.8,276.05Z" transform="translate(-22.59 -17.39)"/><rect class="cls-20" x="127.24" y="103.2" width="205.79" height="77.28" rx="38.64"/><circle class="cls-21" cx="230.13" cy="109.11" r="54.34"/><rect class="cls-21" x="127.24" y="91.82" width="205.79" height="77.28" rx="38.64"/><circle class="cls-21" cx="252.73" cy="115.12" r="54.34" transform="translate(-47.52 92) rotate(-23.31)"/><g class="cls-22"><rect class="cls-23" x="127.24" y="91.82" width="205.79" height="77.28" rx="38.64"/><circle class="cls-23" cx="252.73" cy="115.12" r="54.34" transform="translate(-47.52 92) rotate(-23.31)"/></g><path class="cls-12" d="M240,123.21a2.5,2.5,0,0,1-1.75-4.28l14.58-14.34,14.35,14.35a2.5,2.5,0,1,1-3.53,3.54l-10.85-10.85-11,10.86A2.48,2.48,0,0,1,240,123.21Z" transform="translate(-22.59 -17.39)"/><path class="cls-12" d="M252.73,143.09a2.5,2.5,0,0,1-2.5-2.5V108.11a2.5,2.5,0,1,1,5,0v32.48A2.5,2.5,0,0,1,252.73,143.09Z" transform="translate(-22.59 -17.39)"/><path class="cls-12" d="M276.36,158.52H228.72a6.2,6.2,0,0,1-6.19-6.2V135a2.5,2.5,0,0,1,5,0v17.3a1.2,1.2,0,0,0,1.19,1.2h47.64a1.57,1.57,0,0,0,1.56-1.57V135a2.5,2.5,0,0,1,5,0V152A6.57,6.57,0,0,1,276.36,158.52Z" transform="translate(-22.59 -17.39)"/><path class="cls-24" d="M328.32,323.93,192,369a6.34,6.34,0,0,1-8-4l-45-136.32a6.34,6.34,0,0,1,4-8l136.32-45a6.35,6.35,0,0,1,8,4l45,136.32A6.34,6.34,0,0,1,328.32,323.93Z" transform="translate(-22.59 -17.39)"/><rect class="cls-12" x="147.48" y="189.07" width="156.29" height="156.29" rx="6.36" transform="translate(-95.03 66.88) rotate(-18.28)"/><rect class="cls-20" x="160.71" y="202.41" width="129.67" height="129.67" transform="translate(-95.05 66.85) rotate(-18.28)"/><path class="cls-25" d="M183.27,350.18l-9.21-27.87,13.47-32.47A9.32,9.32,0,0,1,199,284.49l24.93,7.74a3.34,3.34,0,0,0,3.86-1.47l20.76-34.55A17.25,17.25,0,0,1,270,249.27l22.86,9.84.21.64,16.13,48.81-1.42.47Zm-6-27.75,7.92,24,120.27-39.73-15-45.33L268.85,252a14.24,14.24,0,0,0-17.77,5.72l-20.76,34.56A6.33,6.33,0,0,1,223,295.1l-24.93-7.75A6.34,6.34,0,0,0,190.3,291Z" transform="translate(-22.59 -17.39)"/><path class="cls-25" d="M224.38,254.18a16,16,0,1,1,5-.81A15.75,15.75,0,0,1,224.38,254.18Zm0-28.92a13,13,0,1,0,12.31,8.89A13.05,13.05,0,0,0,224.36,225.26Z" transform="translate(-22.59 -17.39)"/><rect class="cls-24" x="233.98" y="211.94" width="119.14" height="119.14" rx="6.36"/><rect class="cls-12" x="227.94" y="205.9" width="119.14" height="119.14" rx="6.36"/><rect class="cls-26" x="238.02" y="216.04" width="98.85" height="98.85"/><path class="cls-25" d="M361.09,333.15H259.25V310.28l17.6-20.38a7.47,7.47,0,0,1,10-1.2l16.19,11.57a2.19,2.19,0,0,0,2.7-.13l23.29-20a13.51,13.51,0,0,1,17.72.13l14.31,12.69Zm-98.84-3h95.84V294.27l-13.3-11.8a10.51,10.51,0,0,0-13.77-.1l-23.29,20.05a5.19,5.19,0,0,1-6.4.29l-16.2-11.57a4.47,4.47,0,0,0-6,.72l-16.87,19.53Z" transform="translate(-22.59 -17.39)"/><path class="cls-25" d="M316.13,274.09a12.52,12.52,0,1,1,12.52-12.52A12.53,12.53,0,0,1,316.13,274.09Zm0-22a9.52,9.52,0,1,0,9.52,9.52A9.53,9.53,0,0,0,316.13,252.05Z" transform="translate(-22.59 -17.39)"/><rect class="cls-24" x="211.32" y="295.44" width="76.96" height="76.96" rx="6.36" transform="translate(-123.88 91.48) rotate(-20.54)"/><rect class="cls-12" x="206.29" y="293.15" width="76.96" height="76.96" rx="6.36" transform="translate(-123.39 89.57) rotate(-20.54)"/><rect class="cls-21" x="212.81" y="299.72" width="63.85" height="63.85" transform="translate(-123.4 89.56) rotate(-20.54)"/><path class="cls-25" d="M225.1,374.26l-5.44-14.51,6.1-16.51a5.34,5.34,0,0,1,6.43-3.32l12.41,3.32a.89.89,0,0,0,1-.42l9.54-17.41a9.25,9.25,0,0,1,11.4-4.17l11.76,4.51,9.39,25.06Zm-2.24-14.52,4,10.66,57-21.35-7.86-21-10.5-4a6.24,6.24,0,0,0-7.7,2.81l-9.54,17.41a3.87,3.87,0,0,1-4.41,1.88l-12.42-3.32a2.35,2.35,0,0,0-2.84,1.46Z" transform="translate(-22.59 -17.39)"/><path class="cls-25" d="M243.6,326a8.62,8.62,0,1,1,8.07-11.64h0a8.63,8.63,0,0,1-5,11.09A8.43,8.43,0,0,1,243.6,326Zm0-14.24a5.62,5.62,0,1,0,5.27,3.65A5.66,5.66,0,0,0,243.59,311.77Z" transform="translate(-22.59 -17.39)"/></g></svg>